<?xml version="1.0" encoding="UTF-8"?><svg id="svg_canvas" data-noselect="" viewBox="0 0 800 600" width="800" height="600" preserveAspectRatio="none" version="1.1" xmlns="http://www.w3.org/2000/svg" xmlns:xlink="http://www.w3.org/1999/xlink"><defs></defs> <g id="background" data-noselect=""><rect fill="#ffffff" width="800" height="600" data-noselect=""></rect> <!----></g> <g id="shape_dHcrofPhfj" transform="translate(291.19434716002996,128.49999778582497) rotate(0,105,105) scale(1,1)" filter="" style="cursor: move; opacity: 1;"><g><rect fill="rgba(0,0,0,0)" width="230" height="230" x="-10" y="-10"></rect><svg version="1.1" xmlns="http://www.w3.org/2000/svg" xmlns:xlink="http://www.w3.org/1999/xlink" x="0px" y="0px" shapetype="round rect" width="210" height="210" viewBox="0 0 100 100" enable-background="new 0 0 100 100" xml:space="preserve" preserveAspectRatio="none" class="style-removed" data-parent="shape_dHcrofPhfj">
	 <linearGradient class="" x1="0%" y1="0%" x2="0%" y2="100%" gradientTransform="translate(0.5,0.5) rotate(0) translate(-0.5,-0.5)">
		<stop id="stop1_ow3cwzdvpZ" offset="0%" class="" stop-color="#05a"></stop>
		<stop id="stop2_ihF6qOUXOs" offset="100%" class="" stop-color="#0a5"></stop>
	</linearGradient>

	<radialGradient class="" cx="50%" cy="50%" r="50%" fx="50%" fy="50%">
		<stop offset="0%" class="" stop-color="#05a"></stop>
		<stop offset="100%" class="" stop-color="#0a5"></stop>
	</radialGradient>
	<clipPath id="f_round_rect_cmuU99ijP7" class="">
		<rect fill="none" class="" stroke="#dddddd" stroke-width="1" stroke-miterlimit="10" x="0" y="0" width="100" height="100" rx="20" ry="20"></rect>
	</clipPath>
	<rect class="" fill="#ff1615" opacity="1" x="1" y="1" width="98" height="98" rx="20" ry="20" stroke-width="0"></rect>
	<rect class="" fill="none" stroke="#dddddd" stroke-width="0" stroke-miterlimit="10" x="0" y="0" width="100" height="100" rx="20" ry="20" clip-path="url(#f_round_rect_cmuU99ijP7)"></rect>
</svg></g></g><g id="shape_VAcn2vZROb" transform="translate(311.69433190123993,148.99998252703497) rotate(0,84.5,84.5) scale(1,1)" filter="" style="cursor: move; opacity: 1;"><g><rect fill="rgba(0,0,0,0)" width="189" height="189" x="-10" y="-10"></rect><svg version="1.1" id="图层_1" xmlns="http://www.w3.org/2000/svg" xmlns:xlink="http://www.w3.org/1999/xlink" x="0px" y="0px" width="169" height="169" viewBox="0 0 100 100" enable-background="new 0 0 100 100" xml:space="preserve" shapetype="ellipse" class="style-removed" preserveAspectRatio="none" data-parent="shape_VAcn2vZROb">
	 <linearGradient class="linearGradient" x1="0%" y1="0%" x2="0%" y2="100%" gradientTransform="translate(0.5,0.5) rotate(0) translate(-0.5,-0.5)">
		<stop id="stop1_E1cPztf51J" offset="0%" class="linearGradientColor1" stop-color="#05a"></stop>
		<stop id="stop2_ssWJ7VWyJo" offset="100%" class="linearGradientColor2" stop-color="#0a5"></stop>
	</linearGradient>

	<radialGradient class="radialGradient" cx="50%" cy="50%" r="50%" fx="50%" fy="50%">
		<stop offset="0%" class="radialGradientColor1" stop-color="#05a"></stop>
		<stop offset="100%" class="radialGradientColor2" stop-color="#0a5"></stop>
	</radialGradient>
	<clipPath id="f_ellipse_d6pUQPM8QZ" class="clipPath">
		<ellipse fill="none" class="element" stroke="#dddddd" stroke-width="1" stroke-miterlimit="10" cx="50" cy="50" rx="50" ry="50" data-ignorecolor=""></ellipse>
	</clipPath>
	<ellipse class="fill-color element" fill="#ffffff" opacity="1" cx="50" cy="50" rx="49" ry="49" stroke-width="0"></ellipse>
	<ellipse class="stroke-color element" fill="none" stroke="#dddddd" stroke-width="0" stroke-miterlimit="10" cx="50" cy="50" rx="50" ry="50" clip-path="url(#f_ellipse_d6pUQPM8QZ)"></ellipse>
</svg></g></g><g id="shape_HMUyFAB88C" transform="translate(231.31565283996997,173.59256743426494) rotate(0,212.9702,231.28760935735102) scale(1,1)" filter="" style="cursor: move; opacity: 1;"><g><svg xmlns="http://www.w3.org/2000/svg" version="1.1" xmlns:xlink="http://www.w3.org/1999/xlink" width="464.96000000000004" height="438.42664" viewBox="0 0 464.96000000000004 438.42664" data-parent="shape_HMUyFAB88C"><rect fill="rgba(0,0,0,0)" width="215" height="62" x="62.49" y="188.21332"></rect><g data-width="214.46995679315606" transform="translate(62.75502160342197, 0)"><path d="M10.50-37.87L51.93-37.87L51.93-32.99L10.50-32.99L10.50-37.87ZM58.30-18.25L31.31-18.25L12.69 3.00L45.81-0.56L41.24-7.19L45.31-9.94L56.62 6.44L52.55 9.25L48.99 4.00L6.44 8.62L6.44 2.62L24.75-18.25L4.19-18.25L4.19-23.18L58.30-23.18L58.30-18.25Z" transform="translate(0 229.21332) skewX(0)" fill="rgb(25, 25, 25)" stroke="rgb(25, 25, 25)" stroke-width="0.104" data-glyph-w="71.48998559771869" data-glyph-h="62.302530000000004" data-glyph-ascender="41.743320000000004" data-glyph-descender="-20.55921"></path><path d="M58.87-35.12L58.87 3.37Q58.87 5.75 57.24 7.37Q55.62 9.00 53.24 9.00L53.24 9.00L41.81 9.00L41.81 4.12L53.24 4.12Q53.55 4.12 53.77 3.91Q53.99 3.69 53.99 3.37L53.99 3.37L53.99-28.81L35.56-28.81Q34.81-26.81 33.78-24.65Q32.74-22.50 31.43-20.31L31.43-20.31L27.25-22.87Q29.00-25.75 30.21-28.68Q31.43-31.62 32.18-33.99Q32.93-36.37 33.28-37.90Q33.62-39.43 33.62-39.43L33.62-39.43L38.43-38.49Q38.43-38.37 38.15-37.09Q37.87-35.81 37.24-33.74L37.24-33.74L53.99-33.74L53.99-35.12L58.87-35.12ZM42.31-23.93L35.06-4.56L44.56-6.06L41.74-12.75L46.24-14.69L52.12-0.69L47.62 1.19L46.49-1.37L29.18 1.31L29.18-3.00L37.74-25.62L42.31-23.93ZM9.50-32.68L9.50-8.56L4.56-8.56L4.56-37.62L21.87-37.62L21.87-38.93L26.81-38.93L26.81-8.56L21.87-8.56L21.87-32.68L9.50-32.68ZM18.25-15.06L18.18-14.94Q17.68-9.75 15.84-5.37Q14.00-1.00 11.94 2.25Q9.87 5.50 8.22 7.37Q6.56 9.25 6.37 9.44L6.37 9.44L2.87 5.94Q2.87 5.87 3.59 5.12Q4.31 4.37 5.37 3.03Q6.44 1.69 7.69-0.25Q8.94-2.19 10.09-4.53Q11.25-6.87 12.12-9.59Q13.00-12.31 13.31-15.31L13.31-15.31L13.31-28.50L18.25-28.50L18.25-15.06ZM20.43-5.19L27.75 6.81L23.56 9.37L16.25-2.56L20.43-5.19Z" transform="translate(71.48998559771869 229.21332) skewX(0)" fill="rgb(25, 25, 25)" stroke="rgb(25, 25, 25)" stroke-width="0.104" data-glyph-w="71.48998559771869" data-glyph-h="62.302530000000004" data-glyph-ascender="41.743320000000004" data-glyph-descender="-20.55921"></path><path d="M13.25-26.81L8.44-26.81Q8.00-24.81 7.44-22.84Q6.87-20.87 6.12-19.12L6.12-19.12L1.62-21.06Q2.62-23.43 3.31-26.34Q4.00-29.25 4.41-31.84Q4.81-34.43 4.97-36.18Q5.12-37.93 5.12-37.93L5.12-37.93L10.00-37.56Q10.00-37.43 9.84-35.78Q9.69-34.12 9.31-31.74L9.31-31.74L13.31-31.74L13.31-39.37L18.25-39.31L18.18-31.74L24.12-31.74L24.12-26.81L18.18-26.81L18.06-7.56L24.31-9.12L25.50-4.37L18.06-2.44L18.00 9.19L13.12 9.12L13.12-1.19L5.19 0.81L3.94-3.94L13.19-6.25L13.25-26.81ZM27.62-5.37L25.68-6.81Q25.68-6.87 27.12-8.90Q28.56-10.94 30.40-14.19Q32.24-17.43 34.03-21.50Q35.81-25.56 36.56-29.68L36.56-29.68L31.93-29.68Q31.18-27.43 30.12-25.06Q29.06-22.68 27.50-20.50L27.50-20.50L23.43-23.31Q25.18-25.81 26.28-28.59Q27.37-31.37 28.03-33.74Q28.68-36.12 28.93-37.68Q29.18-39.24 29.18-39.31L29.18-39.31L34.06-38.74Q34.06-38.62 33.90-37.49Q33.74-36.37 33.31-34.62L33.31-34.62L53.37-34.62L53.37-35.93L58.24-35.93L58.24 3.44Q58.24 5.81 56.62 7.44Q54.99 9.06 52.68 9.06L52.68 9.06L43.87 9.06L43.87 4.12L52.68 4.12Q53.37 4.12 53.37 3.44L53.37 3.44L53.37-29.68L51.74-29.68Q51.18-24.50 49.59-19.68Q47.99-14.87 45.96-10.65Q43.93-6.44 41.71-2.97Q39.49 0.50 37.59 3.06Q35.68 5.62 34.40 7.09Q33.12 8.56 32.93 8.75L32.93 8.75L31.12 7.06L29.37 5.37Q29.43 5.31 30.56 4.00Q31.68 2.69 33.43 0.34Q35.18-2.00 37.24-5.22Q39.31-8.44 41.24-12.31Q43.18-16.18 44.68-20.59Q46.18-25.00 46.81-29.68L46.81-29.68L41.49-29.68Q40.99-26.62 39.96-23.53Q38.93-20.43 37.65-17.62Q36.37-14.81 34.99-12.34Q33.62-9.87 32.43-8.06Q31.25-6.25 30.46-5.12Q29.68-4.00 29.56-3.87L29.56-3.87L27.62-5.37Z" transform="translate(142.97997119543737 229.21332) skewX(0)" fill="rgb(25, 25, 25)" stroke="rgb(25, 25, 25)" stroke-width="0.104" data-glyph-w="71.48998559771869" data-glyph-h="62.302530000000004" data-glyph-ascender="41.743320000000004" data-glyph-descender="-20.55921"></path></g></svg></g></g><g id="shape_s1dWrBUT21" transform="translate(304.19436241881994,319.50000221417497) rotate(0,118.1787109375,138.578561290511) scale(1,1)" filter="" style="cursor: move; opacity: 1;"><g><svg xmlns="http://www.w3.org/2000/svg" version="1.1" xmlns:xlink="http://www.w3.org/1999/xlink" width="260" height="266" viewBox="0 0 260 266" data-parent="shape_s1dWrBUT21"><rect fill="rgba(0,0,0,0)" width="108" height="38" x="38" y="114"></rect><g data-width="107.69140625" transform="translate(38.154296875, 0)"><path d="M1.33-13.45L1.33-13.45Q1.36-16.42 2.59-18.87Q3.82-21.32 5.82-23.05Q7.81-24.79 10.15-25.71Q12.50-26.64 14.70-26.64L14.70-26.64L18.13-26.64L18.13-23.30L15.28-23.30Q11.96-23.14 9.66-21.67Q7.36-20.21 6.24-17.96Q5.13-15.71 5.13-13.22L5.13-13.22Q5.13-11.23 5.94-8.98Q6.74-6.73 9.00-5.03Q11.25-3.34 15.20-3.34L15.20-3.34L18.13-3.34L18.13 0L14.56 0Q10.74 0 7.72-1.78Q4.70-3.55 3.02-6.64Q1.33-9.73 1.33-13.45Z" transform="translate(0 142) skewX(0)" fill="rgb(25, 25, 25)" stroke="rgb(25, 25, 25)" stroke-width="0.063" data-glyph-w="19" data-glyph-h="35.98681640625" data-glyph-ascender="27.17333984375" data-glyph-descender="-8.8134765625"></path><path d="M2.43-7.87L2.43-26.64L5.93-26.64L5.93-9.27Q6.05-7.33 6.56-6.03Q7.08-4.74 8.25-4.04Q9.42-3.34 11.44-3.34L11.44-3.34L14.86-3.34L14.86 0L10.53 0Q8.91 0 7.11-0.78Q5.32-1.56 3.98-3.33Q2.63-5.10 2.43-7.87L2.43-7.87Z" transform="translate(19 142) skewX(0)" fill="rgb(25, 25, 25)" stroke="rgb(25, 25, 25)" stroke-width="0.063" data-glyph-w="14.77880859375" data-glyph-h="35.98681640625" data-glyph-ascender="27.17333984375" data-glyph-descender="-8.8134765625"></path><path d="M4.68-13.80L4.68-13.80Q4.68-11.58 5.42-9.63Q6.17-7.69 7.57-6.18Q8.97-4.67 10.80-3.80Q12.63-2.93 14.78-2.81L14.78-2.81Q16.71-2.81 19.07-3.88Q21.44-4.95 23.19-7.33Q24.94-9.70 25.00-13.30L25.00-13.30Q25.00-15.98 23.78-18.38Q22.56-20.79 20.21-22.27Q17.86-23.75 14.70-23.75L14.70-23.75Q12.72-23.75 10.89-22.97Q9.06-22.18 7.65-20.77Q6.23-19.36 5.46-17.57Q4.68-15.78 4.68-13.80ZM0.87-13.80L0.87-13.80Q0.90-16.57 2.06-18.98Q3.23-21.39 5.18-23.18Q7.13-24.97 9.54-25.99Q11.95-27.01 14.40-27.09L14.40-27.09Q16.85-27.09 19.28-26.28Q21.72-25.47 23.80-23.78Q25.88-22.09 27.22-19.47Q28.55-16.85 28.73-13.45L28.73-13.45Q28.73-10.89 27.72-8.40Q26.70-5.91 24.83-3.90Q22.96-1.89 20.43-0.72Q17.91 0.45 15.05 0.45L15.05 0.45L15.01 0.45Q12.30 0.43 9.78-0.53Q7.25-1.49 5.23-3.34Q3.20-5.20 2.04-7.85Q0.87-10.51 0.87-13.80Z" transform="translate(33.77880859375 142) skewX(0)" fill="rgb(25, 25, 25)" stroke="rgb(25, 25, 25)" stroke-width="0.063" data-glyph-w="29.52978515625" data-glyph-h="35.98681640625" data-glyph-ascender="27.17333984375" data-glyph-descender="-8.8134765625"></path><path d="M1.79-8.70L1.79-26.64L5.36-26.64L5.36-9.05Q5.36-5.77 6.86-4.33Q8.36-2.89 10.60-2.89L10.60-2.89Q12.28-2.89 13.46-3.77Q14.64-4.66 15.22-6.00Q15.81-7.34 15.81-8.70L15.81-8.70L15.81-26.64L19.38-26.64L19.38-8.97Q19.38-6.12 18.17-4.00Q16.97-1.87 14.91-0.75Q12.86 0.38 10.45 0.38L10.45 0.38Q8.67 0.35 7.09-0.29Q5.52-0.94 4.31-2.15Q3.10-3.37 2.44-5.05Q1.79-6.73 1.79-8.70L1.79-8.70Z" transform="translate(63.30859375 142) skewX(0)" fill="rgb(25, 25, 25)" stroke="rgb(25, 25, 25)" stroke-width="0.063" data-glyph-w="21.16162109375" data-glyph-h="35.98681640625" data-glyph-ascender="27.17333984375" data-glyph-descender="-8.8134765625"></path><path d="M5.85 0L2.32 0L2.32-26.64L9.35-26.64Q12.26-26.64 15.13-25.13Q17.99-23.63 19.91-20.64Q21.83-17.65 22.04-13.49L22.04-13.49Q22.02-11.12 21.27-8.82Q20.52-6.51 18.98-4.55Q17.43-2.58 15.06-1.36Q12.68-0.15 9.50 0L9.50 0L7.34 0L7.34-3.42L9.81-3.42Q12.33-3.42 14.27-4.96Q16.22-6.50 17.27-8.85Q18.31-11.20 18.31-13.49L18.31-13.49Q18.21-16.23 16.99-18.45Q15.77-20.68 13.54-21.99Q11.30-23.30 8.32-23.30L8.32-23.30L5.85-23.30L5.85 0Z" transform="translate(84.47021484375 142) skewX(0)" fill="rgb(25, 25, 25)" stroke="rgb(25, 25, 25)" stroke-width="0.063" data-glyph-w="23.22119140625" data-glyph-h="35.98681640625" data-glyph-ascender="27.17333984375" data-glyph-descender="-8.8134765625"></path></g></svg></g></g><g id="shape_ZxNvM7MRza" transform="translate(252.3443339975499,-111.55003273175498) rotate(0,181.44089870275099,344.80075762791495) scale(1,1)" filter="" style="cursor: move; opacity: 1;"><g><svg xmlns="http://www.w3.org/2000/svg" version="1.1" xmlns:xlink="http://www.w3.org/1999/xlink" width="479.4" height="690.0999999999999" viewBox="0 0 479.4 690.0999999999999" data-parent="shape_ZxNvM7MRza"><rect fill="rgba(0,0,0,0)" width="96" height="115" x="95.85" y="287.54999999999995"></rect><g data-width="95.85" transform="translate(95.925, 0)"><path d="M6.46-74.98L88.74-74.98Q90.89-74.98 90.89-72.82L90.89-72.82L90.89-71.79Q90.89-69.64 88.74-69.64L88.74-69.64L6.46-69.64Q4.31-69.64 4.31-71.79L4.31-71.79L4.31-72.82Q4.31-74.98 6.46-74.98L6.46-74.98ZM79.56 13.85L79.28 13.39L6.46 13.39Q4.31 13.39 4.31 11.23L4.31 11.23L4.31 8.42Q4.31 7.96 4.49 7.58L4.49 7.58L21.62-35.29L2.90-35.29Q0.75-35.29 0.75-37.54L0.75-37.54L0.75-38.56Q0.75-40.72 2.90-40.72L2.90-40.72L92.39-40.72Q94.54-40.72 94.54-38.56L94.54-38.56L94.54-37.54Q94.54-35.29 92.39-35.29L92.39-35.29L36.04-35.29L19.94 4.96Q19.56 6.08 20.12 7.02L20.12 7.02Q20.78 7.96 22.00 7.96L22.00 7.96L76.94 7.96L63.37-23.31Q62.90-24.34 63.56-25.37L63.56-25.37Q64.21-26.30 65.34-26.30L65.34-26.30L75.07-26.30Q76.47-26.30 77.04-24.99L77.04-24.99L93.23 12.17Q93.70 13.20 93.04 14.23L93.04 14.23Q92.39 15.16 91.26 15.16L91.26 15.16L81.53 15.16Q80.12 15.16 79.56 13.85L79.56 13.85Z" transform="translate(0 380.54999999999995) " fill="#FF1615" stroke="#FF1615" stroke-width="0.16" data-glyph-w="95.85" data-glyph-h="93.603515625" data-glyph-ascender="82.37109375" data-glyph-descender="-11.232421875"></path></g></svg></g></g>  <!----><defs><pattern id="wm_tile" x="0" y="0" width="20%" height="27%" patternunits="objectBoundingBox"><g id="wm_lm" transform="translate(-188.000000, -323.000000)" fill="#cccccc"><text font-size="15" transform="translate(270.490979, 373.245789) rotate(-390.000000) translate(-270.490979, -373.245789)"><tspan x="187.490979" opacity=".3" y="378.245789">copyright © copyright © </tspan></text></g></pattern></defs><rect x="0" y="0" width="100%" height="100%" style="fill: url(#wm_tile);"></rect></svg>